<?xml version="1.0" encoding="utf-8"?>
<!-- Generator: Adobe Illustrator 26.4.1, SVG Export Plug-In . SVG Version: 6.00 Build 0)  -->
<svg version="1.1" id="Layer_1" xmlns="http://www.w3.org/2000/svg" xmlns:xlink="http://www.w3.org/1999/xlink" x="0px" y="0px"
	 viewBox="0 0 500 500" style="enable-background:new 0 0 500 500;" xml:space="preserve">
<style type="text/css">
	.st0{fill:none;stroke:#ED1C24;stroke-width:7;stroke-miterlimit:10;}
	.st1{fill:none;stroke:#F5874A;stroke-width:7;stroke-miterlimit:10;}
	.st2{fill:none;stroke:#991B1F;stroke-width:7;stroke-miterlimit:10;}
</style>
<g>
	<path class="st0" d="M281.29,489.65C411.64,444.53,464.25,331,435.87,267.24c-28.22-63.38-133.36-70.62-138.12-70.89
		c2.39,1.48,40.78,26.14,40.42,67.96c-0.37,42.83-41.18,80.45-83.52,77.02c-40-3.24-67.52-41.99-70.38-73.98
		c-3.11-34.74,22.6-64.49,63.19-111.48c35.42-41,56.18-52.02,59.41-79.92c3.1-26.8-12.13-50.54-24.47-65.61
		c-3.28,13.32-10.08,34.13-25.58,54.49c-29.68,39.01-65.7,42.81-117.88,78.96c-16.8,11.64-41.04,30.62-66.72,60.05"/>
	<path class="st1" d="M56.65,331.74c0.81-10.42,4.31-37.81,25.02-63.94c22.08-27.87,50.19-37.23,60.05-40.03
		c-4.1,6.71-32.94,55.77-12.79,112.88c15.17,43,48.71,63.92,58.38,69.5"/>
	<circle class="st2" cx="257.78" cy="270.66" r="28.36"/>
</g>
</svg>
