<?xml version="1.0" encoding="utf-8"?>
<!-- Generator: Adobe Illustrator 26.4.1, SVG Export Plug-In . SVG Version: 6.00 Build 0)  -->
<svg version="1.1" id="Layer_1" xmlns="http://www.w3.org/2000/svg" xmlns:xlink="http://www.w3.org/1999/xlink" x="0px" y="0px"
	 viewBox="0 0 500 500" style="enable-background:new 0 0 500 500;" xml:space="preserve">
<style type="text/css">
	.st0{fill:none;stroke:#5F2B80;stroke-width:7;stroke-miterlimit:10;}
	.st1{fill:none;stroke:#9C68AC;stroke-width:7;stroke-linecap:round;stroke-linejoin:round;stroke-miterlimit:10;}
	.st2{fill:none;stroke:#7F3F98;stroke-width:7;stroke-linecap:round;stroke-linejoin:round;stroke-miterlimit:10;}
</style>
<g>
	<circle class="st0" cx="248.67" cy="250" r="26.27"/>
	<path class="st1" d="M130.92,322.75l-61.5,1.36c0,0-3.97,29.33,20.07,52.78H25.41"/>
	<path class="st1" d="M130.95,176.83l-61.51-0.75c0,0-4.27-29.29,19.54-52.98H25.41"/>
	<path class="st2" d="M231.69,322.75L231.69,322.75c-39.94,0-72.31-32.38-72.31-72.31v-1.3c0-39.94,32.38-72.31,72.31-72.31h0"/>
	<path class="st2" d="M159.38,322.75"/>
	<line class="st2" x1="148.07" y1="176.83" x2="231.69" y2="176.83"/>
	<line class="st2" x1="148.07" y1="322.75" x2="231.69" y2="322.75"/>
	<path class="st1" d="M369.08,177.25l61.5-1.36c0,0,3.97-29.33-20.07-52.78h64.07"/>
	<path class="st1" d="M369.05,323.17l61.51,0.75c0,0,4.27,29.29-19.54,52.98h63.57"/>
	<path class="st2" d="M268.31,177.25L268.31,177.25c39.94,0,72.31,32.38,72.31,72.31v1.3c0,39.94-32.38,72.31-72.31,72.31h0"/>
	<path class="st2" d="M340.62,177.25"/>
	<line class="st2" x1="351.93" y1="323.17" x2="268.31" y2="323.17"/>
	<line class="st2" x1="351.93" y1="177.25" x2="268.31" y2="177.25"/>
</g>
</svg>
