<?xml version="1.0" encoding="utf-8"?>
<!-- Generator: Adobe Illustrator 26.4.1, SVG Export Plug-In . SVG Version: 6.00 Build 0)  -->
<svg version="1.1" id="Layer_1" xmlns="http://www.w3.org/2000/svg" xmlns:xlink="http://www.w3.org/1999/xlink" x="0px" y="0px"
	 viewBox="0 0 500 500" style="enable-background:new 0 0 500 500;" xml:space="preserve">
<style type="text/css">
	.st0{fill:none;stroke:#000000;stroke-width:5;stroke-linecap:round;stroke-miterlimit:10;}
	.st1{fill:none;stroke:#414042;stroke-width:5;stroke-linecap:round;stroke-miterlimit:10;}
	.st2{fill:none;stroke:#FFF200;stroke-width:7;stroke-linecap:round;stroke-miterlimit:10;}
</style>
<g>
	<path class="st0" d="M47.3,174.58c30.01-60.45,95.42-96.98,166.34-88.77c90.36,10.46,155.14,92.2,144.68,182.55
		c-10.46,90.37-92.2,155.14-182.56,144.68c-57.67-6.68-108.16-42.81-132.08-91.26"/>
	<path class="st0" d="M43.67,321.79c27.51,76.13,95.8,136.58,181.67,146.53c120.88,14,230.22-72.65,244.21-193.53
		S396.9,44.57,276.03,30.57C172.08,18.54,80.89,80,47.3,174.58"/>
</g>
<g>
	<path class="st1" d="M279.14,208.57c-16.61-33.46-52.82-53.68-92.08-49.14c-50.02,5.79-85.88,51.04-80.09,101.06
		c5.79,50.03,51.04,85.88,101.06,80.09c31.92-3.7,59.87-23.7,73.12-50.52"/>
	<path class="st1" d="M281.15,290.05c-15.23,42.14-53.03,75.61-100.57,81.11c-66.91,7.75-127.44-40.22-135.19-107.13
		s40.22-127.44,107.13-135.19c57.54-6.66,108.02,27.36,126.62,79.72"/>
</g>
<circle class="st2" cx="201.55" cy="249.99" r="26.27"/>
</svg>
