<?xml version="1.0" encoding="utf-8"?>
<!-- Generator: Adobe Illustrator 26.4.1, SVG Export Plug-In . SVG Version: 6.00 Build 0)  -->
<svg version="1.1" xmlns="http://www.w3.org/2000/svg" xmlns:xlink="http://www.w3.org/1999/xlink" x="0px" y="0px"
	 viewBox="0 0 500 500" style="enable-background:new 0 0 500 500;" xml:space="preserve">
<style type="text/css">
	.st0{fill:none;stroke:#A4D399;stroke-width:6;stroke-linecap:round;stroke-miterlimit:10;}
	.st1{fill:none;stroke:#A4D399;stroke-width:7;stroke-linecap:round;stroke-miterlimit:10;}
	.st2{fill:none;stroke:#00A651;stroke-width:6;stroke-linecap:round;stroke-miterlimit:10;}
	.st3{fill:none;stroke:#00A651;stroke-width:6;stroke-miterlimit:10;}
	.st4{fill:none;stroke:#006838;stroke-width:7;stroke-linecap:round;stroke-miterlimit:10;}
</style>
<g id="Layer_1">
</g>
<g id="Layer_2">
	<path class="st0" d="M367.48,231.72c0,0-84.2,167.56-118.06,172.64"/>
	<path class="st0" d="M131.37,230.4c0,0,84.2,167.56,118.06,172.64"/>
	<line class="st1" x1="160.75" y1="286.99" x2="121.48" y2="276.22"/>
	<line class="st1" x1="199.34" y1="346.26" x2="212.71" y2="304.26"/>
	<line class="st0" x1="250.84" y1="88.31" x2="250.84" y2="359"/>
	<path class="st2" d="M250.81,404.02c-0.01,0.89-0.78,1.58-1.66,1.48c-14.23-1.54-75.07-10.51-113.87-64.57
		c-34.54-48.13-38.31-113.43-10.16-168.83c21.23,13.62,67.24,47.23,97.75,109.17C247.91,332.12,251.01,378.75,250.81,404.02z"/>
	<path class="st2" d="M250.83,404.44c0.01,0.66,0.58,1.17,1.24,1.1c13.4-1.4,75.09-10,114.29-64.62
		c34.54-48.13,38.31-113.43,10.16-168.83c-21.23,13.62-67.24,47.23-97.75,109.17C253.59,332.41,250.59,379.28,250.83,404.44z"/>
	<path class="st3" d="M250.82,26.11c0,0-76.22,52.15-76.21,186.66"/>
	<path class="st2" d="M250.82,26.11c0,0,76.22,52.15,76.21,186.66"/>
	<circle class="st4" cx="250.84" cy="441.58" r="26.27"/>
	<line class="st1" x1="338.46" y1="286.99" x2="377.73" y2="276.22"/>
	<line class="st1" x1="299.87" y1="346.26" x2="286.5" y2="304.26"/>
	<line class="st1" x1="250.84" y1="250" x2="212.71" y2="197.67"/>
	<line class="st1" x1="251.02" y1="250" x2="289.16" y2="197.67"/>
	<line class="st1" x1="252.26" y1="163.67" x2="287.92" y2="108.33"/>
	<line class="st1" x1="249.6" y1="163.67" x2="213.95" y2="108.33"/>
</g>
</svg>
