<?xml version="1.0" encoding="utf-8"?>
<!-- Generator: Adobe Illustrator 26.4.1, SVG Export Plug-In . SVG Version: 6.00 Build 0)  -->
<svg version="1.1" id="Layer_1" xmlns="http://www.w3.org/2000/svg" xmlns:xlink="http://www.w3.org/1999/xlink" x="0px" y="0px"
	 viewBox="0 0 500 500" style="enable-background:new 0 0 500 500;" xml:space="preserve">
<style type="text/css">
	.st0{fill:none;stroke:#FFF200;stroke-width:6;stroke-linecap:round;stroke-miterlimit:10;}
	.st1{fill:none;stroke:#FBB040;stroke-width:7;stroke-linecap:round;stroke-miterlimit:10;}
	.st2{fill:none;stroke:#FEF48D;stroke-width:7;stroke-linecap:round;stroke-miterlimit:10;}
</style>
<line class="st0" x1="159.5" y1="157.22" x2="74.33" y2="72.06"/>
<line class="st0" x1="70.83" y1="424.56" x2="159.5" y2="335.89"/>
<line class="st0" x1="339.89" y1="155.44" x2="425.06" y2="70.28"/>
<line class="st0" x1="428.56" y1="424.56" x2="339.89" y2="335.89"/>
<circle class="st1" cx="250" cy="250" r="26.27"/>
<line class="st1" x1="250" y1="208.33" x2="250" y2="160.11"/>
<line class="st1" x1="250" y1="339.89" x2="250" y2="291.67"/>
<line class="st1" x1="159.5" y1="250" x2="207.72" y2="250"/>
<line class="st1" x1="291.67" y1="250" x2="339.89" y2="250"/>
<g>
	<g>
		<path class="st2" d="M250,4c0,135.73-110.03,245.77-245.77,245.77"/>
		<path class="st2" d="M250,4c0,135.73,110.03,245.77,245.77,245.77"/>
		<path class="st2" d="M250,496c0-135.73-110.03-245.77-245.77-245.77"/>
	</g>
	<path class="st2" d="M250,496c0-135.73,110.03-245.77,245.77-245.77"/>
</g>
</svg>
