<?xml version="1.0" encoding="utf-8"?>
<!-- Generator: Adobe Illustrator 26.4.1, SVG Export Plug-In . SVG Version: 6.00 Build 0)  -->
<svg version="1.1" id="Layer_1" xmlns="http://www.w3.org/2000/svg" xmlns:xlink="http://www.w3.org/1999/xlink" x="0px" y="0px"
	 viewBox="0 0 500 500" style="enable-background:new 0 0 500 500;" xml:space="preserve">
<style type="text/css">
	.st0{fill:none;stroke:#2E3192;stroke-width:7;stroke-linecap:round;stroke-linejoin:round;stroke-miterlimit:10;}
	.st1{fill:none;stroke:#00AEEF;stroke-width:7;stroke-linecap:round;stroke-linejoin:round;stroke-miterlimit:10;}
</style>
<g>
	<path class="st0" d="M6.02,349.85c32.58-5.8,80.4-19,125.23-53.54c59.76-46.04,58.96-87.42,116.16-119.79
		c46.9-26.54,121.96-40.88,157.9-4.54c34.56,34.94,18.67,104.42,11.8,105.27c-5.28,0.66-4.23-39.1-29.49-52.18
		c-22.29-11.54-62.03-0.76-78.5,29.04c-11.3,20.45-10.48,47.77,3.63,66.25c14.73,19.29,38.46,21.73,59.89,23.59
		c53.76,4.68,98.23-16.74,123.42-32.22"/>
	<path class="st1" d="M94.14,339.73c50-22.55,77.34-50.21,93.21-72.02c13.8-18.97,24.02-40.52,50.77-61.1
		c18.54-14.26,36.95-21.83,49.81-26.03"/>
	<circle class="st0" cx="360.84" cy="289.95" r="26.56"/>
</g>
</svg>
