<?xml version="1.0" encoding="utf-8"?>
<!-- Generator: Adobe Illustrator 26.4.1, SVG Export Plug-In . SVG Version: 6.00 Build 0)  -->
<svg version="1.1" id="Layer_1" xmlns="http://www.w3.org/2000/svg" xmlns:xlink="http://www.w3.org/1999/xlink" x="0px" y="0px"
	 viewBox="0 0 500 500" style="enable-background:new 0 0 500 500;" xml:space="preserve">
<style type="text/css">
	.st0{fill:none;stroke:#D6E8B3;stroke-width:7;stroke-linecap:round;stroke-miterlimit:10;}
	.st1{fill:none;stroke:#A9B58D;stroke-width:7;stroke-linecap:round;stroke-miterlimit:10;}
</style>
<circle class="st0" cx="250" cy="164.13" r="26.27"/>
<path class="st1" d="M232.28,487.2c32.53-114,12.79-194.07-0.23-231.72c-10.76-31.1-29.07-84.03-69.69-92.92
	c-18.74-4.1-48.41-0.19-60.4,21.49c-9.08,16.43-8.02,43.06,10.45,56.33c17.95,12.9,45.9,8.57,60.98-12.2"/>
<path class="st1" d="M250,109.16c-17.5-29.08-47.29-78.58-90.19-78.87c-19.78-0.13-48.89,10.16-56.35,34.6
	c-5.66,18.52,1.12,45.17,22.59,54.61c20.87,9.18,48.15-1.17,58.93-25.34"/>
<path class="st1" d="M250,109.16c17.5-29.08,47.29-78.58,90.19-78.87c19.78-0.13,48.89,10.16,56.35,34.6
	c5.66,18.52-1.12,45.17-22.59,54.61c-20.87,9.18-48.15-1.17-58.93-25.34"/>
<path class="st1" d="M343.19,466.8c-23.72-24.31-64.09-65.67-53.02-116.77c5.1-23.57,22.83-56.99,48.63-62.96
	c19.55-4.52,43.73,6.71,47.26,33.41c3.42,25.93-13.88,57.18-40.29,67.13"/>
<path class="st1" d="M156.81,466.8c23.72-24.31,64.09-65.67,53.02-116.77c-5.1-23.57-22.83-56.99-48.63-62.96
	c-19.55-4.52-43.73,6.71-47.26,33.41c-3.42,25.93,13.88,57.18,40.29,67.13"/>
<path class="st1" d="M267.72,487.2c-32.53-114-12.79-194.07,0.23-231.72c10.76-31.1,29.07-84.03,69.69-92.92
	c18.74-4.1,48.41-0.19,60.4,21.49c9.08,16.43,8.02,43.06-10.45,56.33c-17.95,12.9-45.9,8.57-60.98-12.2"/>
</svg>
